<?xml version="1.0" encoding="utf-8"?>
<!-- Generator: Adobe Illustrator 23.0.2, SVG Export Plug-In . SVG Version: 6.00 Build 0)  -->
<svg version="1.1" xmlns="http://www.w3.org/2000/svg" xmlns:xlink="http://www.w3.org/1999/xlink" x="0px" y="0px"
	 viewBox="0 0 400 400" style="enable-background:new 0 0 400 400;" xml:space="preserve">
<style type="text/css">
	.st0{fill:#685D79;}
	.st1{fill:#475C7A;}
	.st2{fill:#AB6C82;}
	.st3{fill:#D8737F;}
	.st4{fill:#FCBB6D;}
	.st5{fill:#2D3B51;}
	.st6{fill:#3B4D67;}
	.st7{fill:none;stroke:#805362;stroke-width:14;stroke-miterlimit:10;}
	.st8{fill:none;stroke:#AB6C81;stroke-width:6;stroke-miterlimit:10;}
</style>
<g id="Слой_1">
	<path id="main_5" class="st0" d="M-578.6,296.4h-9.7c-18.5,0-33.5-15-33.5-33.5v-9.7c0-18.5,15-33.5,33.5-33.5h9.7
		c18.5,0,33.5,15,33.5,33.5v9.7C-545.1,281.4-560.1,296.4-578.6,296.4z"/>
	<path id="main_4" class="st1" d="M-578.6,387h-9.7c-18.5,0-33.5-15-33.5-33.5v-9.7c0-18.5,15-33.5,33.5-33.5h9.7
		c18.5,0,33.5,15,33.5,33.5v9.7C-545.1,371.9-560.1,387-578.6,387z"/>
	<path id="main_3" class="st2" d="M-578.6,205.8h-9.7c-18.5,0-33.5-15-33.5-33.5v-9.7c0-18.5,15-33.5,33.5-33.5h9.7
		c18.5,0,33.5,15,33.5,33.5v9.7C-545.1,190.8-560.1,205.8-578.6,205.8z"/>
	<path id="main_2" class="st3" d="M-578.6,115.2h-9.7c-18.5,0-33.5-15-33.5-33.5V72c0-18.5,15-33.5,33.5-33.5h9.7
		c18.5,0,33.5,15,33.5,33.5v9.7C-545.1,100.2-560.1,115.2-578.6,115.2z"/>
	<path id="main_1" class="st4" d="M-578.6,24.6h-9.7c-18.5,0-33.5-15-33.5-33.5v-9.7c0-18.5,15-33.5,33.5-33.5h9.7
		c18.5,0,33.5,15,33.5,33.5v9.7C-545.1,9.6-560.1,24.6-578.6,24.6z"/>
</g>
<g id="Слой_2">
	<path class="st5" d="M306.7,90.3"/>
	<polyline class="st5" points="306.7,90.3 353.8,49.2 353.8,350.8 306.7,309.7 	"/>
	<polyline class="st5" points="306.7,90.3 306.7,309.7 353.8,350.8 353.8,49.2 306.7,90.3 306.7,90.3 	"/>
	<polyline class="st6" points="306.7,90.3 353.8,49.2 353.8,350.8 306.7,309.7 306.7,90.3 	"/>
	<rect id="Main" class="st1" width="400" height="400"/>
	<rect x="46.2" y="49.2" class="st0" width="307.7" height="301.6"/>
	<polygon class="st5" points="353.8,49.2 306.7,90.3 306.7,309.7 353.8,350.8 	"/>
	<rect x="87.3" y="90.3" class="st1" width="219.4" height="219.4"/>
	<rect x="113" y="116" class="st7" width="168" height="168"/>
	<rect x="113" y="116" class="st8" width="168" height="168"/>
	<polygon class="st6" points="46.2,49.2 87.3,90.3 306.7,90.3 353.8,49.2 	"/>
	<polygon class="st6" points="46.2,350.8 87.3,309.7 306.7,309.7 353.8,350.8 	"/>
	<polygon class="st5" points="46.2,49.2 87.3,90.3 87.3,309.7 46.2,350.8 	"/>
</g>
</svg>
