<svg xmlns="http://www.w3.org/2000/svg" viewBox="0 0 241.32 153.22"><defs><style>.cls-1{fill:#685d79;}</style></defs><title>Ресурс 1</title><g id="Слой_2" data-name="Слой 2"><g id="Слой_1-2" data-name="Слой 1"><path class="cls-1" d="M192.78,126a87.3,87.3,0,0,0-52.21-47.93,82.12,82.12,0,0,1,35.59-12c23.83-2.21,46.63,6.26,65.16,22.1C227.17,62.64,202.75,46.42,176.39,48a119.48,119.48,0,0,1,44.17-12.67,87.16,87.16,0,0,0-86.92,21.79q-3,3-5.65,6.23A119,119,0,0,1,156.25,5.07,87.52,87.52,0,0,0,118.42,41.9,87.56,87.56,0,0,0,79.67,0a119.16,119.16,0,0,1,25.77,53.77A87.26,87.26,0,0,0,34.66,21.25,119.11,119.11,0,0,1,84.75,56a62.71,62.71,0,0,0-10-3.76c-27-7.53-55.44,3.88-74.72,27C21.55,67,46.13,62.94,69.87,69.57a85.13,85.13,0,0,1,18.33,7.5,87.42,87.42,0,0,0-48.64,36.24,119.13,119.13,0,0,1,66.15-21.89c.27.73.54,1.45.8,2.18-1.52,10.8-6.05,50-10.25,59.62h38.8c-3.23-9.07-7.43-47.45-8.38-57.36.53-1,1.08-1.89,1.64-2.83A119.14,119.14,0,0,1,192.78,126Z"/></g></g></svg>